<svg width="518" height="358" viewBox="0 0 518 358" fill="none" xmlns="http://www.w3.org/2000/svg">
<path d="M0 2.5C35.5 2.5 75.9938 12.5 104 37.5C132.006 62.5 146.5 112.5 146.5 142.5C146.5 172.5 140 253.5 125 253.5C110 253.5 104 226.5 104 185.5C104 144.5 106.881 106.588 114 80.5C120.413 57 137 15 159.5 15C200.5 15 224 126 224 177C224 228 212.5 253.5 185.5 253.5C164.228 253.5 163 230 159.5 206C156 182 159.5 107.5 185.5 88.5C205.413 73.9484 223.939 78.7087 232 80.5C268 88.5 281.743 146.833 286 185.5C289.578 218 286.5 253.5 268 253.5C249.5 253.5 240.5 195.5 240.5 185C240.5 106.5 271.905 32.3003 319 15C343.5 6 377 29.5 392 55C407 80.5 411.5 114 401 136C390.5 158 368 177 319 177C291.5 177 293.21 141.318 310.5 128.5C327.79 115.682 347.193 114.313 368 128.5C379 136 400 168.5 409 206C418 243.5 447 335 516.5 355.5" stroke="black" stroke-width="4"/>
</svg>
