<svg width="790" height="394" viewBox="0 0 790 394" fill="none" xmlns="http://www.w3.org/2000/svg">
<path d="M0 2C96 2 163.994 50.5 192 75.5C220.006 100.5 234.5 150.5 234.5 180.5C234.5 210.5 228 291.5 213 291.5C198 291.5 192 264.5 192 223.5C192 182.5 194.881 144.588 202 118.5C208.413 95 225 53 247.5 53C288.5 53 312 164 312 215C312 266 300.5 291.5 273.5 291.5C252.228 291.5 251 268 247.5 244C244 220 247.5 145.5 273.5 126.5C293.413 111.948 311.939 116.709 320 118.5C356 126.5 369.743 184.833 374 223.5C377.578 256 374.5 291.5 356 291.5C337.5 291.5 328.5 233.5 328.5 223C328.5 144.5 359.905 70.3003 407 53C431.5 44 465 67.5 480 93C495 118.5 499.5 152 489 174C478.5 196 456 215 407 215C379.5 215 381.21 179.318 398.5 166.5C415.79 153.682 435.193 152.313 456 166.5C467 174 488 206.5 497 244C506 281.5 524 353.5 561 376C634.33 420.593 785.833 356.833 788 331.5" stroke="black" stroke-width="4"/>
</svg>
